# xmcd
#
# Track frame offsets: 
#        150
#        22125
#        41884
#        60833
#        84545
#        99739
#        115354
#        132225
#        151485
#        167965
#        180269
#        194255
#        209302
#
# Disc length: 3038 seconds
#
# Revision: 0
# Processed by: cddbd v1.5.2PL0 Copyright (c) Steve Scherf et al.
# Submitted via: ExactAudioCopyFreeDBPlugin 1.0
#
DISCID=b10bdc0d
DTITLE=Mississippi Shakedown - The Blues Lives Here
DYEAR=2008
DGENRE=Blues
TTITLE0=The Blues Lives Here
TTITLE1=Rock And Roll Part 1
TTITLE2=She's What The Blues Looks Like
TTITLE3=There Ain't No Need To Worry
TTITLE4=Amazing Grace
TTITLE5=I Wish Every Night Was Saturday Night
TTITLE6=My Baby's Like An Automobile
TTITLE7=Time To Kill
TTITLE8=I'm Tuff
TTITLE9=Little Miss Dynamite
TTITLE10=I Haven't Got A Hold Of The Bottle
TTITLE11=I've Even Lost The Blues
TTITLE12=If You Leave Here Tomorrow
EXTD=
EXTT0=
EXTT1=
EXTT2=
EXTT3=
EXTT4=
EXTT5=
EXTT6=
EXTT7=
EXTT8=
EXTT9=
EXTT10=
EXTT11=
EXTT12=
PLAYORDER=
